<?xml version="1.0" encoding="UTF-8"?>
<svg id="Layer_2" data-name="Layer 2" xmlns="http://www.w3.org/2000/svg" viewBox="0 0 892.39 313.91">
  <defs>
    <style>
      .cls-1 {
        fill: #000;
        stroke-width: 0px;
      }
    </style>
  </defs>
  <g id="Layer_1-2" data-name="Layer 1">
    <g>
      <path class="cls-1" d="M212.7,163.18c-11.86-16.5-27.74-29.43-44.79-40.09-13.85-8.23-28.24-15.66-43.04-22.21,18.28.46,52.8-.24,79.64-9.99L234.06,0C142.47,52.85,0,69.53,0,69.53c0,0,0,0,0,0,0,0,0,0,0,0,50.76,11.64,99.57,29.22,145.6,53.23,8.41,4.38,16.65,9.09,24.56,14.29-8.38-2.57-17.28-3.96-26.51-3.96-49.93,0-90.41,40.48-90.41,90.41s40.48,90.41,90.41,90.41,90.41-40.48,90.41-90.41c0-17.36-4.91-33.58-13.39-47.35-2.36-4.54-5.04-8.88-7.97-12.97Z"/>
      <g>
        <path class="cls-1" d="M334.94,91.07c-4.27,1.8-8.58,2.7-12.93,2.7-6.86,0-13.03-1.19-18.51-3.58-5.48-2.39-10.1-5.67-13.87-9.85-3.77-4.18-6.65-9.1-8.66-14.75s-3.01-11.74-3.01-18.26,1-12.91,3.01-18.64c2.01-5.73,4.9-10.73,8.66-15,3.77-4.27,8.39-7.61,13.87-10.04,5.48-2.43,11.65-3.64,18.51-3.64,4.6,0,9.06.69,13.37,2.07,4.31,1.38,8.2,3.41,11.67,6.09,3.47,2.68,6.34,5.98,8.6,9.92,2.26,3.93,3.64,8.45,4.14,13.56h-18.83c-1.17-5.02-3.43-8.79-6.78-11.3-3.35-2.51-7.41-3.77-12.18-3.77-4.44,0-8.2.86-11.3,2.57-3.1,1.72-5.61,4.02-7.53,6.9-1.93,2.89-3.33,6.17-4.2,9.85-.88,3.68-1.32,7.49-1.32,11.42s.44,7.43,1.32,10.98c.88,3.56,2.28,6.76,4.2,9.6,1.92,2.85,4.43,5.13,7.53,6.84,3.09,1.72,6.86,2.57,11.3,2.57,6.53,0,11.57-1.65,15.13-4.96,3.56-3.3,5.63-8.1,6.21-14.37h-19.83v-14.69h37.66v48.45h-12.55l-2.01-10.17c-3.51,4.52-7.41,7.68-11.67,9.48Z"/>
        <path class="cls-1" d="M393.68,2.13v73.06h43.68v16.57h-63.39V2.13h19.71Z"/>
        <path class="cls-1" d="M444.39,28.68c2.01-5.73,4.9-10.73,8.66-15,3.77-4.27,8.39-7.61,13.87-10.04,5.48-2.43,11.65-3.64,18.51-3.64s13.14,1.21,18.58,3.64c5.44,2.43,10.04,5.77,13.81,10.04,3.77,4.27,6.65,9.27,8.66,15,2.01,5.73,3.01,11.95,3.01,18.64s-1,12.62-3.01,18.26-4.9,10.57-8.66,14.75c-3.77,4.19-8.37,7.47-13.81,9.85-5.44,2.38-11.63,3.58-18.58,3.58s-13.03-1.19-18.51-3.58c-5.48-2.39-10.1-5.67-13.87-9.85-3.77-4.18-6.65-9.1-8.66-14.75s-3.01-11.74-3.01-18.26,1-12.91,3.01-18.64ZM462.41,58.31c.88,3.56,2.28,6.76,4.2,9.6,1.92,2.85,4.43,5.13,7.53,6.84,3.09,1.72,6.86,2.57,11.3,2.57s8.2-.86,11.3-2.57c3.09-1.71,5.61-4,7.53-6.84,1.92-2.84,3.33-6.04,4.21-9.6.88-3.56,1.32-7.22,1.32-10.98s-.44-7.74-1.32-11.42c-.88-3.68-2.28-6.97-4.21-9.85-1.93-2.89-4.44-5.19-7.53-6.9-3.1-1.71-6.86-2.57-11.3-2.57s-8.2.86-11.3,2.57c-3.1,1.72-5.61,4.02-7.53,6.9-1.93,2.89-3.33,6.17-4.2,9.85-.88,3.68-1.32,7.49-1.32,11.42s.44,7.43,1.32,10.98Z"/>
        <path class="cls-1" d="M581.97,2.13c4.27,0,8.16.38,11.67,1.13,3.51.75,6.53,1.99,9.04,3.7,2.51,1.72,4.46,4,5.84,6.84,1.38,2.85,2.07,6.36,2.07,10.54,0,4.52-1.03,8.28-3.08,11.3-2.05,3.01-5.08,5.48-9.1,7.41,5.52,1.59,9.64,4.37,12.36,8.35,2.72,3.98,4.08,8.77,4.08,14.37,0,4.52-.88,8.43-2.64,11.74-1.76,3.31-4.12,6.01-7.09,8.1-2.97,2.09-6.36,3.64-10.17,4.64-3.81,1-7.72,1.51-11.74,1.51h-43.43V2.13h42.18ZM579.46,38.41c3.51,0,6.4-.84,8.66-2.51,2.26-1.67,3.39-4.39,3.39-8.16,0-2.09-.38-3.81-1.13-5.15-.75-1.34-1.76-2.38-3.01-3.14-1.26-.75-2.7-1.27-4.33-1.57-1.63-.29-3.33-.44-5.08-.44h-18.45v20.96h19.96ZM580.59,76.44c1.92,0,3.77-.19,5.52-.56,1.76-.38,3.3-1,4.64-1.88,1.34-.88,2.4-2.07,3.2-3.58.79-1.51,1.19-3.43,1.19-5.77,0-4.6-1.3-7.89-3.89-9.85-2.59-1.97-6.03-2.95-10.29-2.95h-21.46v24.6h21.09Z"/>
        <path class="cls-1" d="M669.71,2.13l33.52,89.62h-20.46l-6.78-19.96h-33.52l-7.03,19.96h-19.83L649.5,2.13h20.21ZM670.84,57.11l-11.3-32.89h-.25l-11.67,32.89h23.22Z"/>
        <path class="cls-1" d="M727.58,2.13v73.06h43.68v16.57h-63.39V2.13h19.71Z"/>
        <path class="cls-1" d="M296.91,179.6c1.09,2.09,2.53,3.79,4.33,5.08,1.8,1.3,3.91,2.26,6.34,2.89,2.43.63,4.94.94,7.53.94,1.76,0,3.64-.15,5.65-.44,2.01-.29,3.89-.86,5.65-1.69,1.76-.84,3.22-1.99,4.39-3.45,1.17-1.46,1.76-3.33,1.76-5.59,0-2.43-.77-4.39-2.32-5.9-1.55-1.51-3.58-2.76-6.09-3.77-2.51-1-5.36-1.88-8.54-2.64-3.18-.75-6.4-1.59-9.67-2.51-3.35-.84-6.61-1.86-9.79-3.08-3.18-1.21-6.03-2.78-8.54-4.71-2.51-1.92-4.54-4.33-6.09-7.22-1.55-2.89-2.32-6.38-2.32-10.48,0-4.6.98-8.6,2.95-11.99,1.97-3.39,4.54-6.21,7.72-8.47,3.18-2.26,6.78-3.93,10.8-5.02,4.02-1.09,8.03-1.63,12.05-1.63,4.69,0,9.18.52,13.49,1.57,4.31,1.05,8.14,2.74,11.49,5.08,3.35,2.34,6,5.33,7.97,8.97,1.97,3.64,2.95,8.06,2.95,13.24h-19.08c-.17-2.68-.73-4.9-1.69-6.65-.96-1.76-2.24-3.14-3.83-4.14-1.59-1-3.41-1.71-5.46-2.13-2.05-.42-4.29-.63-6.72-.63-1.59,0-3.18.17-4.77.5-1.59.34-3.03.92-4.33,1.76-1.3.84-2.37,1.88-3.2,3.14-.84,1.26-1.26,2.85-1.26,4.77,0,1.76.33,3.18,1,4.27.67,1.09,1.99,2.09,3.95,3.01,1.97.92,4.69,1.84,8.16,2.76,3.47.92,8.01,2.09,13.62,3.51,1.67.34,4,.94,6.97,1.82,2.97.88,5.92,2.28,8.85,4.21,2.93,1.93,5.46,4.5,7.59,7.72,2.13,3.22,3.2,7.34,3.2,12.36,0,4.1-.8,7.91-2.39,11.42-1.59,3.52-3.95,6.55-7.09,9.1-3.14,2.55-7.03,4.54-11.67,5.96s-10.02,2.13-16.13,2.13c-4.94,0-9.73-.61-14.37-1.82-4.64-1.21-8.75-3.12-12.3-5.71-3.56-2.59-6.38-5.9-8.47-9.92-2.09-4.02-3.1-8.79-3.01-14.31h19.08c0,3.01.54,5.57,1.63,7.66Z"/>
        <path class="cls-1" d="M359.29,138.62c2.01-5.73,4.9-10.73,8.66-15,3.77-4.27,8.39-7.61,13.87-10.04,5.48-2.43,11.65-3.64,18.51-3.64s13.14,1.21,18.58,3.64c5.44,2.43,10.04,5.77,13.81,10.04,3.77,4.27,6.65,9.27,8.66,15,2.01,5.73,3.01,11.95,3.01,18.64s-1,12.62-3.01,18.26-4.9,10.57-8.66,14.75c-3.77,4.19-8.37,7.47-13.81,9.85-5.44,2.38-11.63,3.58-18.58,3.58s-13.03-1.19-18.51-3.58c-5.48-2.38-10.1-5.67-13.87-9.85-3.77-4.18-6.65-9.1-8.66-14.75s-3.01-11.74-3.01-18.26,1-12.91,3.01-18.64ZM377.3,168.24c.88,3.56,2.28,6.76,4.2,9.6,1.92,2.85,4.43,5.13,7.53,6.84,3.09,1.72,6.86,2.57,11.3,2.57s8.2-.86,11.3-2.57c3.09-1.71,5.61-4,7.53-6.84,1.92-2.84,3.33-6.04,4.21-9.6.88-3.56,1.32-7.22,1.32-10.98s-.44-7.74-1.32-11.42c-.88-3.68-2.28-6.97-4.21-9.85-1.93-2.89-4.44-5.19-7.53-6.9-3.1-1.71-6.86-2.57-11.3-2.57s-8.2.86-11.3,2.57c-3.1,1.72-5.61,4.02-7.53,6.9-1.93,2.89-3.33,6.17-4.2,9.85-.88,3.68-1.32,7.49-1.32,11.42s.44,7.43,1.32,10.98Z"/>
        <path class="cls-1" d="M474.27,112.07l37.41,60.13h.25v-60.13h18.45v89.62h-19.71l-37.28-60h-.25v60h-18.45v-89.62h19.58Z"/>
        <path class="cls-1" d="M597.66,201c-4.27,1.8-8.58,2.7-12.93,2.7-6.86,0-13.03-1.19-18.51-3.58-5.48-2.38-10.1-5.67-13.87-9.85-3.77-4.18-6.65-9.1-8.66-14.75s-3.01-11.74-3.01-18.26,1-12.91,3.01-18.64c2.01-5.73,4.9-10.73,8.66-15,3.77-4.27,8.39-7.61,13.87-10.04,5.48-2.43,11.65-3.64,18.51-3.64,4.6,0,9.06.69,13.37,2.07,4.31,1.38,8.2,3.41,11.67,6.09,3.47,2.68,6.34,5.98,8.6,9.92,2.26,3.93,3.64,8.45,4.14,13.56h-18.83c-1.17-5.02-3.43-8.79-6.78-11.3-3.35-2.51-7.41-3.77-12.18-3.77-4.44,0-8.2.86-11.3,2.57-3.1,1.72-5.61,4.02-7.53,6.9-1.93,2.89-3.33,6.17-4.2,9.85-.88,3.68-1.32,7.49-1.32,11.42s.44,7.43,1.32,10.98c.88,3.56,2.28,6.76,4.2,9.6,1.92,2.85,4.43,5.13,7.53,6.84,3.09,1.72,6.86,2.57,11.3,2.57,6.53,0,11.57-1.65,15.13-4.96,3.56-3.3,5.63-8.1,6.21-14.37h-19.83v-14.69h37.66v48.45h-12.55l-2.01-10.17c-3.51,4.52-7.41,7.68-11.67,9.48Z"/>
        <path class="cls-1" d="M326.53,222.01l33.52,89.62h-20.46l-6.78-19.96h-33.52l-7.03,19.96h-19.83l33.89-89.62h20.21ZM327.66,276.99l-11.3-32.89h-.25l-11.67,32.89h23.22Z"/>
        <path class="cls-1" d="M422.18,245.92c-1.17-1.88-2.64-3.53-4.39-4.96-1.76-1.42-3.75-2.53-5.96-3.33-2.22-.79-4.54-1.19-6.97-1.19-4.44,0-8.2.86-11.3,2.57-3.1,1.72-5.61,4.02-7.53,6.9-1.93,2.89-3.33,6.17-4.2,9.85-.88,3.68-1.32,7.49-1.32,11.42s.44,7.43,1.32,10.98c.88,3.56,2.28,6.76,4.2,9.6,1.92,2.85,4.43,5.13,7.53,6.84,3.09,1.72,6.86,2.57,11.3,2.57,6.03,0,10.73-1.84,14.12-5.52,3.39-3.68,5.46-8.54,6.21-14.56h19.08c-.5,5.61-1.8,10.67-3.89,15.19-2.09,4.52-4.85,8.37-8.28,11.55-3.43,3.18-7.45,5.61-12.05,7.28-4.6,1.67-9.67,2.51-15.19,2.51-6.86,0-13.03-1.19-18.51-3.58-5.48-2.38-10.1-5.67-13.87-9.85-3.77-4.18-6.65-9.1-8.66-14.75s-3.01-11.74-3.01-18.26,1-12.91,3.01-18.64c2.01-5.73,4.9-10.73,8.66-15,3.77-4.27,8.39-7.61,13.87-10.04,5.48-2.43,11.65-3.64,18.51-3.64,4.94,0,9.6.71,14,2.13,4.39,1.42,8.33,3.49,11.8,6.21,3.47,2.72,6.34,6.09,8.6,10.1s3.68,8.62,4.27,13.81h-19.08c-.34-2.26-1.09-4.33-2.26-6.21Z"/>
        <path class="cls-1" d="M499.25,222.01l33.52,89.62h-20.46l-6.78-19.96h-33.52l-7.03,19.96h-19.83l33.89-89.62h20.21ZM500.38,276.99l-11.3-32.89h-.25l-11.67,32.89h23.22Z"/>
        <path class="cls-1" d="M576.07,222.01c5.77,0,11.15.92,16.13,2.76,4.98,1.84,9.29,4.6,12.93,8.28,3.64,3.68,6.48,8.28,8.54,13.81,2.05,5.52,3.08,12.01,3.08,19.46,0,6.53-.84,12.55-2.51,18.08-1.67,5.52-4.2,10.29-7.59,14.31-3.39,4.02-7.62,7.18-12.68,9.48-5.06,2.3-11.03,3.45-17.89,3.45h-38.66v-89.62h38.66ZM574.69,295.06c2.84,0,5.61-.46,8.28-1.38,2.68-.92,5.06-2.45,7.15-4.58,2.09-2.13,3.77-4.92,5.02-8.35,1.26-3.43,1.88-7.61,1.88-12.55,0-4.52-.44-8.6-1.32-12.24-.88-3.64-2.32-6.76-4.33-9.35-2.01-2.59-4.67-4.58-7.97-5.96-3.31-1.38-7.39-2.07-12.24-2.07h-14.06v56.49h17.57Z"/>
        <path class="cls-1" d="M694.32,222.01v16.57h-47.32v19.21h43.43v15.31h-43.43v21.97h48.33v16.57h-68.03v-89.62h67.03Z"/>
        <path class="cls-1" d="M733.23,222.01l20.96,61.63h.25l19.83-61.63h27.74v89.62h-18.45v-63.52h-.25l-21.97,63.52h-15.19l-21.97-62.89h-.25v62.89h-18.45v-89.62h27.74Z"/>
        <path class="cls-1" d="M806.53,222.01h22.09l20.96,35.4,20.84-35.4h21.97l-33.26,55.23v34.39h-19.71v-34.9l-32.89-54.73Z"/>
      </g>
    </g>
  </g>
</svg>