<?xml version="1.0" encoding="UTF-8"?>
<!DOCTYPE svg PUBLIC "-//W3C//DTD SVG 1.1//EN" "http://www.w3.org/Graphics/SVG/1.1/DTD/svg11.dtd">
<svg xmlns="http://www.w3.org/2000/svg" version="1.1" width="744px" height="267px" style="shape-rendering:geometricPrecision; text-rendering:geometricPrecision; image-rendering:optimizeQuality; fill-rule:evenodd; clip-rule:evenodd" xmlns:xlink="http://www.w3.org/1999/xlink">
<g><path style="opacity:1" fill="#000000" d="M 261.5,1.5 C 276.015,-0.931231 287.848,3.4021 297,14.5C 299.736,18.7795 301.236,23.4461 301.5,28.5C 296.125,28.8282 290.792,28.4948 285.5,27.5C 282.313,18.5694 275.979,14.736 266.5,16C 257.586,17.9153 252.42,23.4153 251,32.5C 248.387,43.7591 250.887,53.5925 258.5,62C 267.632,67.1701 276.132,66.3367 284,59.5C 285.623,56.6731 286.79,53.6731 287.5,50.5C 281.872,49.5046 276.206,49.1712 270.5,49.5C 270.5,45.5 270.5,41.5 270.5,37.5C 281.167,37.5 291.833,37.5 302.5,37.5C 302.5,50.8333 302.5,64.1667 302.5,77.5C 298.833,77.5 295.167,77.5 291.5,77.5C 291.477,75.0733 290.977,72.74 290,70.5C 282.198,78.7652 272.698,81.5985 261.5,79C 242.548,73.2919 233.214,60.4586 233.5,40.5C 233.68,20.6886 243.013,7.68863 261.5,1.5 Z"/></g>
<g><path style="opacity:1" fill="#000000" d="M 396.5,1.5 C 429.365,0.537738 444.199,16.5377 441,49.5C 435.006,72.4718 420.173,82.3051 396.5,79C 383.204,75.7051 374.37,67.5384 370,54.5C 365.324,37.0357 369.157,21.869 381.5,9C 386.152,5.62763 391.152,3.12763 396.5,1.5 Z M 401.5,15.5 C 413.708,15.0136 421.208,20.6802 424,32.5C 425.557,41.6609 424.223,50.3276 420,58.5C 410,67.8333 400,67.8333 390,58.5C 385.22,48.9371 384.22,38.9371 387,28.5C 389.549,21.4428 394.382,17.1095 401.5,15.5 Z"/></g>
<g><path style="opacity:1" fill="#000000" d="M 194.5,2.5 C 195.239,2.36899 195.906,2.53566 196.5,3C 188.217,28.5156 179.551,53.8489 170.5,79C 150.246,84.6956 129.58,87.6956 108.5,88C 133.364,98.5045 155.197,113.338 174,132.5C 185.94,146.717 193.273,163.05 196,181.5C 197.132,223.029 177.965,250.195 138.5,263C 98.6887,269.678 69.5221,255.178 51,219.5C 38.1833,183.26 46.3499,152.76 75.5,128C 95.0197,114.857 116.353,110.524 139.5,115C 96.3201,89.9372 50.3201,71.9372 1.5,61C 56.7699,53.0993 110.437,39.0993 162.5,19C 173.667,14.2513 184.334,8.75129 194.5,2.5 Z"/></g>
<g><path style="opacity:1" fill="#000000" d="M 312.5,3.5 C 318.167,3.5 323.833,3.5 329.5,3.5C 329.5,23.5 329.5,43.5 329.5,63.5C 341.5,63.5 353.5,63.5 365.5,63.5C 365.5,68.1667 365.5,72.8333 365.5,77.5C 347.833,77.5 330.167,77.5 312.5,77.5C 312.5,52.8333 312.5,28.1667 312.5,3.5 Z"/></g>
<g><path style="opacity:1" fill="#000000" d="M 449.5,3.5 C 464.17,3.33342 478.837,3.50009 493.5,4C 507.655,8.42603 511.822,17.5927 506,31.5C 504.127,33.7089 501.96,35.5422 499.5,37C 510.539,42.5878 514.372,51.4211 511,63.5C 508.557,69.8182 504.057,73.9848 497.5,76C 481.557,77.4383 465.557,77.9383 449.5,77.5C 449.5,52.8333 449.5,28.1667 449.5,3.5 Z M 466.5,16.5 C 473.906,16.152 481.239,16.652 488.5,18C 494.421,24.3952 493.421,29.3952 485.5,33C 479.175,33.4995 472.842,33.6662 466.5,33.5C 466.5,27.8333 466.5,22.1667 466.5,16.5 Z M 466.5,44.5 C 474.571,44.1367 482.571,44.6367 490.5,46C 497.061,51.7519 497.061,57.4185 490.5,63C 482.571,64.3633 474.571,64.8633 466.5,64.5C 466.5,57.8333 466.5,51.1667 466.5,44.5 Z"/></g>
<g><path style="opacity:1" fill="#000000" d="M 540.5,3.5 C 546.5,3.5 552.5,3.5 558.5,3.5C 567.202,27.9107 576.202,52.2441 585.5,76.5C 579.612,77.8074 573.779,77.8074 568,76.5C 566.359,71.241 564.525,66.0743 562.5,61C 553.5,60.3333 544.5,60.3333 535.5,61C 533.5,66.3333 531.5,71.6667 529.5,77C 523.833,77.6667 518.167,77.6667 512.5,77C 521.976,52.549 531.309,28.049 540.5,3.5 Z M 548.5,22.5 C 551.908,30.8779 555.242,39.3779 558.5,48C 552.167,48.6667 545.833,48.6667 539.5,48C 542.999,39.6703 545.999,31.1703 548.5,22.5 Z"/></g>
<g><path style="opacity:1" fill="#000000" d="M 588.5,3.5 C 594.167,3.5 599.833,3.5 605.5,3.5C 605.5,23.5 605.5,43.5 605.5,63.5C 617.5,63.5 629.5,63.5 641.5,63.5C 641.5,68.1667 641.5,72.8333 641.5,77.5C 623.833,77.5 606.167,77.5 588.5,77.5C 588.5,52.8333 588.5,28.1667 588.5,3.5 Z"/></g>
<g><path style="opacity:1" fill="#000000" d="M 254.5,92.5 C 264.806,91.2421 274.472,93.0754 283.5,98C 289.458,102.698 292.458,108.864 292.5,116.5C 286.833,116.5 281.167,116.5 275.5,116.5C 274.542,108.743 270.042,105.076 262,105.5C 254.181,105.317 250.515,108.984 251,116.5C 252.731,118.617 254.898,120.117 257.5,121C 266.751,122.895 275.751,125.562 284.5,129C 293.535,134.757 296.702,142.924 294,153.5C 288.149,166.102 278.149,171.768 264,170.5C 251.792,171.552 242.125,167.219 235,157.5C 232.755,153.113 231.589,148.446 231.5,143.5C 237.167,143.5 242.833,143.5 248.5,143.5C 248.365,151.538 252.365,156.038 260.5,157C 266.758,158.02 272.258,156.52 277,152.5C 279.446,146.211 277.279,142.045 270.5,140C 260.848,137.922 251.515,134.922 242.5,131C 233.604,122.772 232.104,113.272 238,102.5C 242.427,97.2119 247.927,93.8785 254.5,92.5 Z"/></g>
<g><path style="opacity:1" fill="#000000" d="M 326.5,92.5 C 359.365,91.5377 374.199,107.538 371,140.5C 365.006,163.472 350.173,173.305 326.5,170C 313.204,166.705 304.37,158.538 300,145.5C 295.324,128.036 299.157,112.869 311.5,100C 316.152,96.6276 321.152,94.1276 326.5,92.5 Z M 331.5,106.5 C 343.708,106.014 351.208,111.68 354,123.5C 355.557,132.661 354.223,141.328 350,149.5C 342.07,157.204 333.236,158.371 323.5,153C 319.743,149.579 317.243,145.412 316,140.5C 315.161,133.433 315.494,126.433 317,119.5C 319.549,112.443 324.382,108.109 331.5,106.5 Z"/></g>
<g><path style="opacity:1" fill="#000000" d="M 478.5,92.5 C 493.015,90.0688 504.848,94.4021 514,105.5C 516.736,109.779 518.236,114.446 518.5,119.5C 513.125,119.828 507.792,119.495 502.5,118.5C 499.313,109.569 492.979,105.736 483.5,107C 474.586,108.915 469.42,114.415 468,123.5C 466.912,131.348 467.579,139.015 470,146.5C 476,155.38 484.167,158.213 494.5,155C 500.369,152.446 503.703,147.946 504.5,141.5C 498.872,140.505 493.206,140.171 487.5,140.5C 487.5,136.5 487.5,132.5 487.5,128.5C 498.167,128.5 508.833,128.5 519.5,128.5C 519.5,141.833 519.5,155.167 519.5,168.5C 515.833,168.5 512.167,168.5 508.5,168.5C 508.477,166.073 507.977,163.74 507,161.5C 499.198,169.765 489.698,172.599 478.5,170C 459.548,164.292 450.214,151.459 450.5,131.5C 450.68,111.689 460.013,98.6886 478.5,92.5 Z"/></g>
<g><path style="opacity:1" fill="#000000" d="M 379.5,94.5 C 385.425,94.1918 391.259,94.5251 397,95.5C 406.667,111.167 416.333,126.833 426,142.5C 426.5,126.503 426.667,110.503 426.5,94.5C 431.833,94.5 437.167,94.5 442.5,94.5C 442.5,119.167 442.5,143.833 442.5,168.5C 436.575,168.808 430.741,168.475 425,167.5C 415.333,151.833 405.667,136.167 396,120.5C 395.5,136.497 395.333,152.497 395.5,168.5C 390.167,168.5 384.833,168.5 379.5,168.5C 379.5,143.833 379.5,119.167 379.5,94.5 Z"/></g>
<g><path style="opacity:1" fill="#000000" d="M 330.5,183.5 C 351.945,180.368 365.612,189.035 371.5,209.5C 365.872,210.495 360.206,210.829 354.5,210.5C 350.766,199.299 343.1,195.466 331.5,199C 324.887,202.042 321.054,207.209 320,214.5C 317.387,225.759 319.887,235.592 327.5,244C 337.412,249.73 345.912,248.23 353,239.5C 354.145,236.568 354.978,233.568 355.5,230.5C 360.833,230.5 366.167,230.5 371.5,230.5C 369.858,250.809 358.858,261.142 338.5,261.5C 318.907,260.744 307.074,250.744 303,231.5C 299.156,207.613 308.323,191.613 330.5,183.5 Z"/></g>
<g><path style="opacity:1" fill="#000000" d="M 256.5,185.5 C 262.5,185.5 268.5,185.5 274.5,185.5C 283.202,209.911 292.202,234.244 301.5,258.5C 295.612,259.807 289.779,259.807 284,258.5C 282.359,253.241 280.525,248.074 278.5,243C 269.5,242.333 260.5,242.333 251.5,243C 249.5,248.333 247.5,253.667 245.5,259C 239.833,259.667 234.167,259.667 228.5,259C 237.976,234.549 247.309,210.049 256.5,185.5 Z M 264.5,204.5 C 267.908,212.878 271.242,221.378 274.5,230C 268.167,230.667 261.833,230.667 255.5,230C 258.999,221.67 261.999,213.17 264.5,204.5 Z"/></g>
<g><path style="opacity:1" fill="#000000" d="M 399.5,185.5 C 405.5,185.5 411.5,185.5 417.5,185.5C 426.202,209.911 435.202,234.244 444.5,258.5C 438.612,259.807 432.779,259.807 427,258.5C 425.359,253.241 423.525,248.074 421.5,243C 412.5,242.333 403.5,242.333 394.5,243C 392.5,248.333 390.5,253.667 388.5,259C 382.833,259.667 377.167,259.667 371.5,259C 380.976,234.549 390.309,210.049 399.5,185.5 Z M 407.5,204.5 C 410.908,212.878 414.242,221.378 417.5,230C 411.167,230.667 404.833,230.667 398.5,230C 401.999,221.67 404.999,213.17 407.5,204.5 Z"/></g>
<g><path style="opacity:1" fill="#000000" d="M 448.5,185.5 C 461.837,185.333 475.171,185.5 488.5,186C 506.326,191.187 514.993,203.187 514.5,222C 515.557,240.904 507.224,253.238 489.5,259C 475.837,259.5 462.171,259.667 448.5,259.5C 448.5,234.833 448.5,210.167 448.5,185.5 Z M 465.5,199.5 C 475.223,198.237 484.223,200.07 492.5,205C 497.657,214.308 498.824,224.141 496,234.5C 493.549,240.616 489.049,244.116 482.5,245C 476.843,245.499 471.176,245.666 465.5,245.5C 465.5,230.167 465.5,214.833 465.5,199.5 Z"/></g>
<g><path style="opacity:1" fill="#000000" d="M 522.5,185.5 C 541.167,185.5 559.833,185.5 578.5,185.5C 578.5,190.167 578.5,194.833 578.5,199.5C 565.5,199.5 552.5,199.5 539.5,199.5C 539.5,204.5 539.5,209.5 539.5,214.5C 551.5,214.5 563.5,214.5 575.5,214.5C 575.5,218.833 575.5,223.167 575.5,227.5C 563.5,227.5 551.5,227.5 539.5,227.5C 539.5,233.5 539.5,239.5 539.5,245.5C 552.833,245.5 566.167,245.5 579.5,245.5C 579.5,250.167 579.5,254.833 579.5,259.5C 560.5,259.5 541.5,259.5 522.5,259.5C 522.5,234.833 522.5,210.167 522.5,185.5 Z"/></g>
<g><path style="opacity:1" fill="#000000" d="M 586.5,185.5 C 594.5,185.5 602.5,185.5 610.5,185.5C 615.706,202.249 621.206,218.916 627,235.5C 632.535,219.229 637.868,202.896 643,186.5C 650.747,185.518 658.58,185.185 666.5,185.5C 666.5,210.167 666.5,234.833 666.5,259.5C 661.5,259.5 656.5,259.5 651.5,259.5C 651.667,242.83 651.5,226.163 651,209.5C 645.068,225.795 639.235,242.129 633.5,258.5C 628.88,259.493 624.214,259.827 619.5,259.5C 614.308,243.091 608.808,226.757 603,210.5C 602.5,226.83 602.333,243.163 602.5,259.5C 597.167,259.5 591.833,259.5 586.5,259.5C 586.5,234.833 586.5,210.167 586.5,185.5 Z"/></g>
<g><path style="opacity:1" fill="#000000" d="M 670.5,186.5 C 676.653,185.347 682.986,185.18 689.5,186C 694.791,195.418 700.457,204.585 706.5,213.5C 712.085,204.665 717.419,195.665 722.5,186.5C 728.833,185.167 735.167,185.167 741.5,186.5C 732.468,201.035 723.635,215.702 715,230.5C 714.5,240.161 714.334,249.828 714.5,259.5C 708.833,259.5 703.167,259.5 697.5,259.5C 697.666,249.494 697.5,239.494 697,229.5C 688.141,215.103 679.308,200.769 670.5,186.5 Z"/></g>
</svg>
